<mxfile host="app.diagrams.net" agent="Mozilla/5.0 (X11; Linux x86_64; rv:139.0) Gecko/20100101 Firefox/139.0" version="27.0.6">
  <diagram name="Page-1" id="ff44883e-f642-bcb2-894b-16b3d25a3f0b">
    <mxGraphModel dx="1210" dy="543" grid="1" gridSize="10" guides="1" tooltips="1" connect="1" arrows="1" fold="1" page="1" pageScale="1.5" pageWidth="1169" pageHeight="826" background="none" math="0" shadow="0">
      <root>
        <mxCell id="0" style=";html=1;" />
        <mxCell id="1" style=";html=1;" parent="0" />
        <mxCell id="-gtFXGKGoz0XktbpPvWM-53" value="" style="rounded=1;whiteSpace=wrap;html=1;fillColor=none;" vertex="1" parent="1">
          <mxGeometry x="20" y="370" width="350" height="130" as="geometry" />
        </mxCell>
        <mxCell id="-gtFXGKGoz0XktbpPvWM-67" value="Start Date" style="text;html=1;align=center;verticalAlign=middle;whiteSpace=wrap;rounded=0;fontSize=10;" vertex="1" parent="1">
          <mxGeometry x="22" y="412" width="60" height="30" as="geometry" />
        </mxCell>
        <mxCell id="-gtFXGKGoz0XktbpPvWM-68" value="End Date" style="text;html=1;align=center;verticalAlign=middle;whiteSpace=wrap;rounded=0;fontSize=10;" vertex="1" parent="1">
          <mxGeometry x="166" y="412" width="60" height="30" as="geometry" />
        </mxCell>
        <mxCell id="-gtFXGKGoz0XktbpPvWM-1" value="" style="ellipse;whiteSpace=wrap;html=1;aspect=fixed;fillColor=#d5e8d4;strokeColor=#FFD700;align=center;verticalAlign=middle;fontFamily=Helvetica;fontSize=12;" vertex="1" parent="1">
          <mxGeometry x="180" y="600" width="100" height="100" as="geometry" />
        </mxCell>
        <mxCell id="-gtFXGKGoz0XktbpPvWM-3" value="Board representation" style="text;html=1;align=center;verticalAlign=middle;whiteSpace=wrap;rounded=0;" vertex="1" parent="1">
          <mxGeometry x="200" y="627.5" width="60" height="45" as="geometry" />
        </mxCell>
        <mxCell id="-gtFXGKGoz0XktbpPvWM-4" value="" style="ellipse;whiteSpace=wrap;html=1;aspect=fixed;" vertex="1" parent="1">
          <mxGeometry x="740" y="657.5" width="100" height="100" as="geometry" />
        </mxCell>
        <mxCell id="-gtFXGKGoz0XktbpPvWM-5" value="Board representation" style="text;html=1;align=center;verticalAlign=middle;whiteSpace=wrap;rounded=0;" vertex="1" parent="1">
          <mxGeometry x="760" y="685" width="60" height="45" as="geometry" />
        </mxCell>
        <mxCell id="-gtFXGKGoz0XktbpPvWM-6" value="" style="ellipse;whiteSpace=wrap;html=1;aspect=fixed;fillColor=#f8cecc;strokeColor=#b85450;" vertex="1" parent="1">
          <mxGeometry x="740" y="657.5" width="100" height="100" as="geometry" />
        </mxCell>
        <mxCell id="-gtFXGKGoz0XktbpPvWM-7" value="Lichess compatability" style="text;html=1;align=center;verticalAlign=middle;whiteSpace=wrap;rounded=0;" vertex="1" parent="1">
          <mxGeometry x="760" y="685" width="60" height="45" as="geometry" />
        </mxCell>
        <mxCell id="-gtFXGKGoz0XktbpPvWM-8" value="" style="ellipse;whiteSpace=wrap;html=1;aspect=fixed;" vertex="1" parent="1">
          <mxGeometry x="380" y="730" width="100" height="100" as="geometry" />
        </mxCell>
        <mxCell id="-gtFXGKGoz0XktbpPvWM-9" value="Board representation" style="text;html=1;align=center;verticalAlign=middle;whiteSpace=wrap;rounded=0;" vertex="1" parent="1">
          <mxGeometry x="400" y="757.5" width="60" height="45" as="geometry" />
        </mxCell>
        <mxCell id="-gtFXGKGoz0XktbpPvWM-10" value="" style="ellipse;whiteSpace=wrap;html=1;aspect=fixed;fillColor=#d5e8d4;strokeColor=#82b366;" vertex="1" parent="1">
          <mxGeometry x="380" y="730" width="100" height="100" as="geometry" />
        </mxCell>
        <mxCell id="-gtFXGKGoz0XktbpPvWM-11" value="Gameplay" style="text;html=1;align=center;verticalAlign=middle;whiteSpace=wrap;rounded=0;" vertex="1" parent="1">
          <mxGeometry x="400" y="757.5" width="60" height="45" as="geometry" />
        </mxCell>
        <mxCell id="-gtFXGKGoz0XktbpPvWM-93" style="edgeStyle=orthogonalEdgeStyle;rounded=0;orthogonalLoop=1;jettySize=auto;html=1;exitX=0.5;exitY=0;exitDx=0;exitDy=0;entryX=0.5;entryY=0;entryDx=0;entryDy=0;" edge="1" parent="1" source="-gtFXGKGoz0XktbpPvWM-12" target="-gtFXGKGoz0XktbpPvWM-47">
          <mxGeometry relative="1" as="geometry">
            <Array as="points">
              <mxPoint x="960" y="370" />
            </Array>
          </mxGeometry>
        </mxCell>
        <mxCell id="-gtFXGKGoz0XktbpPvWM-12" value="" style="ellipse;whiteSpace=wrap;html=1;aspect=fixed;fillColor=#f8cecc;strokeColor=#b85450;" vertex="1" parent="1">
          <mxGeometry x="560" y="370" width="100" height="100" as="geometry" />
        </mxCell>
        <mxCell id="-gtFXGKGoz0XktbpPvWM-13" value="Machine learning" style="text;html=1;align=center;verticalAlign=middle;whiteSpace=wrap;rounded=0;" vertex="1" parent="1">
          <mxGeometry x="580" y="397.5" width="60" height="45" as="geometry" />
        </mxCell>
        <mxCell id="-gtFXGKGoz0XktbpPvWM-14" value="" style="ellipse;whiteSpace=wrap;html=1;aspect=fixed;fillColor=#f8cecc;strokeColor=#FFD700;align=center;verticalAlign=middle;fontFamily=Helvetica;fontSize=12;" vertex="1" parent="1">
          <mxGeometry x="740" y="530" width="100" height="100" as="geometry" />
        </mxCell>
        <mxCell id="-gtFXGKGoz0XktbpPvWM-15" value="Advanced AI" style="text;html=1;align=center;verticalAlign=middle;whiteSpace=wrap;rounded=0;" vertex="1" parent="1">
          <mxGeometry x="760" y="557.5" width="60" height="45" as="geometry" />
        </mxCell>
        <mxCell id="-gtFXGKGoz0XktbpPvWM-92" style="edgeStyle=orthogonalEdgeStyle;rounded=0;orthogonalLoop=1;jettySize=auto;html=1;exitX=1;exitY=0.5;exitDx=0;exitDy=0;entryX=0.5;entryY=0;entryDx=0;entryDy=0;" edge="1" parent="1" source="-gtFXGKGoz0XktbpPvWM-16" target="-gtFXGKGoz0XktbpPvWM-47">
          <mxGeometry relative="1" as="geometry" />
        </mxCell>
        <mxCell id="-gtFXGKGoz0XktbpPvWM-16" value="" style="ellipse;whiteSpace=wrap;html=1;aspect=fixed;fillColor=#dae8fc;strokeColor=#6c8ebf;" vertex="1" parent="1">
          <mxGeometry x="740" y="397.5" width="100" height="100" as="geometry" />
        </mxCell>
        <mxCell id="-gtFXGKGoz0XktbpPvWM-17" value="Performance testing" style="text;html=1;align=center;verticalAlign=middle;whiteSpace=wrap;rounded=0;" vertex="1" parent="1">
          <mxGeometry x="760" y="425" width="60" height="45" as="geometry" />
        </mxCell>
        <mxCell id="-gtFXGKGoz0XktbpPvWM-18" value="" style="ellipse;whiteSpace=wrap;html=1;aspect=fixed;fillColor=#dae8fc;strokeColor=#FFD700;align=center;verticalAlign=middle;fontFamily=Helvetica;fontSize=12;fontColor=default;" vertex="1" parent="1">
          <mxGeometry x="380" y="470" width="100" height="100" as="geometry" />
        </mxCell>
        <mxCell id="-gtFXGKGoz0XktbpPvWM-19" value="Evaluation" style="text;html=1;align=center;verticalAlign=middle;whiteSpace=wrap;rounded=0;" vertex="1" parent="1">
          <mxGeometry x="400" y="497.5" width="60" height="45" as="geometry" />
        </mxCell>
        <mxCell id="-gtFXGKGoz0XktbpPvWM-20" value="" style="ellipse;whiteSpace=wrap;html=1;aspect=fixed;fillColor=#dae8fc;strokeColor=#FFD700;" vertex="1" parent="1">
          <mxGeometry x="560" y="530" width="100" height="100" as="geometry" />
        </mxCell>
        <mxCell id="-gtFXGKGoz0XktbpPvWM-21" value="Searching" style="text;html=1;align=center;verticalAlign=middle;whiteSpace=wrap;rounded=0;" vertex="1" parent="1">
          <mxGeometry x="580" y="557.5" width="60" height="45" as="geometry" />
        </mxCell>
        <mxCell id="-gtFXGKGoz0XktbpPvWM-22" value="" style="ellipse;whiteSpace=wrap;html=1;aspect=fixed;fillColor=#d5e8d4;strokeColor=#FFD700;align=center;verticalAlign=middle;fontFamily=Helvetica;fontSize=12;" vertex="1" parent="1">
          <mxGeometry x="380" y="600" width="100" height="100" as="geometry" />
        </mxCell>
        <mxCell id="-gtFXGKGoz0XktbpPvWM-23" value="Move generation" style="text;html=1;align=center;verticalAlign=middle;whiteSpace=wrap;rounded=0;" vertex="1" parent="1">
          <mxGeometry x="400" y="627.5" width="60" height="45" as="geometry" />
        </mxCell>
        <mxCell id="-gtFXGKGoz0XktbpPvWM-24" value="" style="endArrow=classic;html=1;rounded=0;exitX=1;exitY=0.5;exitDx=0;exitDy=0;entryX=0;entryY=0.5;entryDx=0;entryDy=0;" edge="1" parent="1" source="-gtFXGKGoz0XktbpPvWM-1" target="-gtFXGKGoz0XktbpPvWM-10">
          <mxGeometry width="50" height="50" relative="1" as="geometry">
            <mxPoint x="130" y="660" as="sourcePoint" />
            <mxPoint x="180" y="610" as="targetPoint" />
          </mxGeometry>
        </mxCell>
        <mxCell id="-gtFXGKGoz0XktbpPvWM-37" value="" style="endArrow=classic;html=1;rounded=0;exitX=1;exitY=0.5;exitDx=0;exitDy=0;entryX=0;entryY=0.5;entryDx=0;entryDy=0;" edge="1" parent="1" source="-gtFXGKGoz0XktbpPvWM-18" target="-gtFXGKGoz0XktbpPvWM-12">
          <mxGeometry width="50" height="50" relative="1" as="geometry">
            <mxPoint x="450" y="440" as="sourcePoint" />
            <mxPoint x="500" y="390" as="targetPoint" />
          </mxGeometry>
        </mxCell>
        <mxCell id="-gtFXGKGoz0XktbpPvWM-38" value="" style="endArrow=classic;html=1;rounded=0;exitX=1;exitY=0.5;exitDx=0;exitDy=0;entryX=0.02;entryY=0.43;entryDx=0;entryDy=0;entryPerimeter=0;" edge="1" parent="1" source="-gtFXGKGoz0XktbpPvWM-22" target="-gtFXGKGoz0XktbpPvWM-20">
          <mxGeometry width="50" height="50" relative="1" as="geometry">
            <mxPoint x="510" y="580" as="sourcePoint" />
            <mxPoint x="590" y="480" as="targetPoint" />
          </mxGeometry>
        </mxCell>
        <mxCell id="-gtFXGKGoz0XktbpPvWM-39" value="" style="endArrow=classic;html=1;rounded=0;exitX=1;exitY=0.5;exitDx=0;exitDy=0;entryX=0;entryY=0.5;entryDx=0;entryDy=0;" edge="1" parent="1" source="-gtFXGKGoz0XktbpPvWM-18" target="-gtFXGKGoz0XktbpPvWM-20">
          <mxGeometry width="50" height="50" relative="1" as="geometry">
            <mxPoint x="510" y="580" as="sourcePoint" />
            <mxPoint x="590" y="480" as="targetPoint" />
          </mxGeometry>
        </mxCell>
        <mxCell id="-gtFXGKGoz0XktbpPvWM-40" value="" style="endArrow=classic;html=1;rounded=0;exitX=1;exitY=0.5;exitDx=0;exitDy=0;entryX=0;entryY=0.5;entryDx=0;entryDy=0;" edge="1" parent="1" source="-gtFXGKGoz0XktbpPvWM-1" target="-gtFXGKGoz0XktbpPvWM-22">
          <mxGeometry width="50" height="50" relative="1" as="geometry">
            <mxPoint x="280" y="770" as="sourcePoint" />
            <mxPoint x="380" y="900" as="targetPoint" />
          </mxGeometry>
        </mxCell>
        <mxCell id="-gtFXGKGoz0XktbpPvWM-41" value="" style="endArrow=classic;html=1;rounded=0;exitX=1;exitY=0.5;exitDx=0;exitDy=0;entryX=0;entryY=0.5;entryDx=0;entryDy=0;" edge="1" parent="1" source="-gtFXGKGoz0XktbpPvWM-1" target="-gtFXGKGoz0XktbpPvWM-18">
          <mxGeometry width="50" height="50" relative="1" as="geometry">
            <mxPoint x="330" y="520" as="sourcePoint" />
            <mxPoint x="430" y="650" as="targetPoint" />
          </mxGeometry>
        </mxCell>
        <mxCell id="-gtFXGKGoz0XktbpPvWM-42" value="" style="endArrow=classic;html=1;rounded=0;exitX=1;exitY=0.5;exitDx=0;exitDy=0;entryX=0;entryY=0.5;entryDx=0;entryDy=0;" edge="1" parent="1" source="-gtFXGKGoz0XktbpPvWM-20" target="-gtFXGKGoz0XktbpPvWM-16">
          <mxGeometry width="50" height="50" relative="1" as="geometry">
            <mxPoint x="600" y="550" as="sourcePoint" />
            <mxPoint x="650" y="500" as="targetPoint" />
          </mxGeometry>
        </mxCell>
        <mxCell id="-gtFXGKGoz0XktbpPvWM-43" value="" style="endArrow=classic;html=1;rounded=0;exitX=1;exitY=0.5;exitDx=0;exitDy=0;entryX=0;entryY=0.5;entryDx=0;entryDy=0;" edge="1" parent="1" source="-gtFXGKGoz0XktbpPvWM-20" target="-gtFXGKGoz0XktbpPvWM-6">
          <mxGeometry width="50" height="50" relative="1" as="geometry">
            <mxPoint x="870" y="622" as="sourcePoint" />
            <mxPoint x="950" y="490" as="targetPoint" />
          </mxGeometry>
        </mxCell>
        <mxCell id="-gtFXGKGoz0XktbpPvWM-44" value="" style="endArrow=classic;html=1;rounded=0;exitX=1;exitY=0.5;exitDx=0;exitDy=0;entryX=0;entryY=0.5;entryDx=0;entryDy=0;" edge="1" parent="1" source="-gtFXGKGoz0XktbpPvWM-20" target="-gtFXGKGoz0XktbpPvWM-14">
          <mxGeometry width="50" height="50" relative="1" as="geometry">
            <mxPoint x="950" y="622" as="sourcePoint" />
            <mxPoint x="1030" y="490" as="targetPoint" />
          </mxGeometry>
        </mxCell>
        <mxCell id="-gtFXGKGoz0XktbpPvWM-45" value="" style="ellipse;whiteSpace=wrap;html=1;aspect=fixed;fillColor=#ffe6cc;strokeColor=#d79b00;" vertex="1" parent="1">
          <mxGeometry x="20" y="600" width="100" height="100" as="geometry" />
        </mxCell>
        <mxCell id="-gtFXGKGoz0XktbpPvWM-46" value="Start" style="text;html=1;align=center;verticalAlign=middle;whiteSpace=wrap;rounded=0;" vertex="1" parent="1">
          <mxGeometry x="40" y="627.5" width="60" height="45" as="geometry" />
        </mxCell>
        <mxCell id="-gtFXGKGoz0XktbpPvWM-47" value="" style="ellipse;whiteSpace=wrap;html=1;aspect=fixed;fillColor=#ffe6cc;strokeColor=#d79b00;" vertex="1" parent="1">
          <mxGeometry x="910" y="530" width="100" height="100" as="geometry" />
        </mxCell>
        <mxCell id="-gtFXGKGoz0XktbpPvWM-48" value="End" style="text;html=1;align=center;verticalAlign=middle;whiteSpace=wrap;rounded=0;" vertex="1" parent="1">
          <mxGeometry x="930" y="557.5" width="60" height="45" as="geometry" />
        </mxCell>
        <mxCell id="-gtFXGKGoz0XktbpPvWM-51" value="" style="endArrow=classic;html=1;rounded=0;exitX=1;exitY=0.5;exitDx=0;exitDy=0;entryX=0;entryY=0.5;entryDx=0;entryDy=0;" edge="1" parent="1" source="-gtFXGKGoz0XktbpPvWM-14" target="-gtFXGKGoz0XktbpPvWM-47">
          <mxGeometry width="50" height="50" relative="1" as="geometry">
            <mxPoint x="710" y="580" as="sourcePoint" />
            <mxPoint x="790" y="580" as="targetPoint" />
          </mxGeometry>
        </mxCell>
        <mxCell id="-gtFXGKGoz0XktbpPvWM-52" value="" style="endArrow=classic;html=1;rounded=0;exitX=1;exitY=0.5;exitDx=0;exitDy=0;entryX=0;entryY=0.5;entryDx=0;entryDy=0;" edge="1" parent="1" source="-gtFXGKGoz0XktbpPvWM-45" target="-gtFXGKGoz0XktbpPvWM-1">
          <mxGeometry width="50" height="50" relative="1" as="geometry">
            <mxPoint x="280" y="680" as="sourcePoint" />
            <mxPoint x="360" y="680" as="targetPoint" />
          </mxGeometry>
        </mxCell>
        <mxCell id="-gtFXGKGoz0XktbpPvWM-54" value="" style="rounded=1;whiteSpace=wrap;html=1;fillColor=#dae8fc;strokeColor=#6c8ebf;" vertex="1" parent="1">
          <mxGeometry x="243" y="422" width="48" height="28" as="geometry" />
        </mxCell>
        <mxCell id="-gtFXGKGoz0XktbpPvWM-57" value="" style="rounded=1;whiteSpace=wrap;html=1;fillColor=#d5e8d4;strokeColor=#82b366;" vertex="1" parent="1">
          <mxGeometry x="243" y="382" width="48" height="28" as="geometry" />
        </mxCell>
        <mxCell id="-gtFXGKGoz0XktbpPvWM-59" value="Milestone 1" style="text;html=1;align=center;verticalAlign=middle;whiteSpace=wrap;rounded=0;" vertex="1" parent="1">
          <mxGeometry x="299" y="380" width="70" height="30" as="geometry" />
        </mxCell>
        <mxCell id="-gtFXGKGoz0XktbpPvWM-60" value="Milestone 2" style="text;html=1;align=center;verticalAlign=middle;whiteSpace=wrap;rounded=0;" vertex="1" parent="1">
          <mxGeometry x="299" y="422" width="70" height="30" as="geometry" />
        </mxCell>
        <mxCell id="-gtFXGKGoz0XktbpPvWM-61" value="Milestone 3" style="text;html=1;align=center;verticalAlign=middle;whiteSpace=wrap;rounded=0;" vertex="1" parent="1">
          <mxGeometry x="299" y="459.5" width="70" height="30" as="geometry" />
        </mxCell>
        <mxCell id="-gtFXGKGoz0XktbpPvWM-65" style="edgeStyle=orthogonalEdgeStyle;rounded=0;orthogonalLoop=1;jettySize=auto;html=1;exitX=1;exitY=0.5;exitDx=0;exitDy=0;" edge="1" parent="1" source="-gtFXGKGoz0XktbpPvWM-62">
          <mxGeometry relative="1" as="geometry">
            <mxPoint x="230" y="437" as="targetPoint" />
          </mxGeometry>
        </mxCell>
        <mxCell id="-gtFXGKGoz0XktbpPvWM-62" value="" style="ellipse;whiteSpace=wrap;html=1;aspect=fixed;fillColor=#dae8fc;strokeColor=#FFD700;align=center;verticalAlign=middle;fontFamily=Helvetica;fontSize=12;fontColor=default;" vertex="1" parent="1">
          <mxGeometry x="84.5" y="395.5" width="83" height="83" as="geometry" />
        </mxCell>
        <mxCell id="-gtFXGKGoz0XktbpPvWM-63" value="Critical Path" style="text;html=1;align=center;verticalAlign=middle;whiteSpace=wrap;rounded=0;" vertex="1" parent="1">
          <mxGeometry x="96" y="414.5" width="60" height="45" as="geometry" />
        </mxCell>
        <mxCell id="-gtFXGKGoz0XktbpPvWM-66" style="edgeStyle=orthogonalEdgeStyle;rounded=0;orthogonalLoop=1;jettySize=auto;html=1;entryX=0;entryY=0.5;entryDx=0;entryDy=0;" edge="1" parent="1" target="-gtFXGKGoz0XktbpPvWM-62">
          <mxGeometry relative="1" as="geometry">
            <mxPoint x="222" y="472" as="targetPoint" />
            <mxPoint x="30" y="437" as="sourcePoint" />
          </mxGeometry>
        </mxCell>
        <mxCell id="-gtFXGKGoz0XktbpPvWM-69" value="" style="rounded=1;whiteSpace=wrap;html=1;fillColor=#f8cecc;strokeColor=#b85450;" vertex="1" parent="1">
          <mxGeometry x="244" y="462" width="48" height="28" as="geometry" />
        </mxCell>
        <mxCell id="-gtFXGKGoz0XktbpPvWM-70" value="0" style="text;html=1;align=center;verticalAlign=middle;whiteSpace=wrap;rounded=0;" vertex="1" parent="1">
          <mxGeometry x="156" y="620" width="30" height="30" as="geometry" />
        </mxCell>
        <mxCell id="-gtFXGKGoz0XktbpPvWM-71" value="2" style="text;html=1;align=center;verticalAlign=middle;whiteSpace=wrap;rounded=0;" vertex="1" parent="1">
          <mxGeometry x="291" y="620" width="30" height="30" as="geometry" />
        </mxCell>
        <mxCell id="-gtFXGKGoz0XktbpPvWM-72" value="2" style="text;html=1;align=center;verticalAlign=middle;whiteSpace=wrap;rounded=0;" vertex="1" parent="1">
          <mxGeometry x="350" y="620" width="30" height="30" as="geometry" />
        </mxCell>
        <mxCell id="-gtFXGKGoz0XktbpPvWM-73" value="8" style="text;html=1;align=center;verticalAlign=middle;whiteSpace=wrap;rounded=0;" vertex="1" parent="1">
          <mxGeometry x="360" y="527.5" width="30" height="30" as="geometry" />
        </mxCell>
        <mxCell id="-gtFXGKGoz0XktbpPvWM-74" value="10" style="text;html=1;align=center;verticalAlign=middle;whiteSpace=wrap;rounded=0;" vertex="1" parent="1">
          <mxGeometry x="480" y="497.5" width="30" height="30" as="geometry" />
        </mxCell>
        <mxCell id="-gtFXGKGoz0XktbpPvWM-75" value="5" style="text;html=1;align=center;verticalAlign=middle;whiteSpace=wrap;rounded=0;" vertex="1" parent="1">
          <mxGeometry x="480" y="635" width="30" height="30" as="geometry" />
        </mxCell>
        <mxCell id="-gtFXGKGoz0XktbpPvWM-88" style="edgeStyle=orthogonalEdgeStyle;rounded=0;orthogonalLoop=1;jettySize=auto;html=1;exitX=1;exitY=0.5;exitDx=0;exitDy=0;entryX=0.5;entryY=1;entryDx=0;entryDy=0;" edge="1" parent="1" source="-gtFXGKGoz0XktbpPvWM-10" target="-gtFXGKGoz0XktbpPvWM-47">
          <mxGeometry relative="1" as="geometry">
            <mxPoint x="930" y="640" as="targetPoint" />
            <Array as="points">
              <mxPoint x="960" y="780" />
            </Array>
          </mxGeometry>
        </mxCell>
        <mxCell id="-gtFXGKGoz0XktbpPvWM-76" value="8" style="text;html=1;align=center;verticalAlign=middle;whiteSpace=wrap;rounded=0;" vertex="1" parent="1">
          <mxGeometry x="480" y="750" width="30" height="30" as="geometry" />
        </mxCell>
        <mxCell id="-gtFXGKGoz0XktbpPvWM-77" value="5" style="text;html=1;align=center;verticalAlign=middle;whiteSpace=wrap;rounded=0;" vertex="1" parent="1">
          <mxGeometry x="360" y="740" width="30" height="30" as="geometry" />
        </mxCell>
        <mxCell id="-gtFXGKGoz0XktbpPvWM-78" value="10" style="text;html=1;align=center;verticalAlign=middle;whiteSpace=wrap;rounded=0;" vertex="1" parent="1">
          <mxGeometry x="540" y="542.5" width="30" height="30" as="geometry" />
        </mxCell>
        <mxCell id="-gtFXGKGoz0XktbpPvWM-79" value="14" style="text;html=1;align=center;verticalAlign=middle;whiteSpace=wrap;rounded=0;" vertex="1" parent="1">
          <mxGeometry x="670" y="550" width="30" height="30" as="geometry" />
        </mxCell>
        <mxCell id="-gtFXGKGoz0XktbpPvWM-80" value="23" style="text;html=1;align=center;verticalAlign=middle;whiteSpace=wrap;rounded=0;" vertex="1" parent="1">
          <mxGeometry x="642" y="363.5" width="30" height="30" as="geometry" />
        </mxCell>
        <mxCell id="-gtFXGKGoz0XktbpPvWM-81" value="21" style="text;html=1;align=center;verticalAlign=middle;whiteSpace=wrap;rounded=0;" vertex="1" parent="1">
          <mxGeometry x="540" y="432" width="30" height="30" as="geometry" />
        </mxCell>
        <mxCell id="-gtFXGKGoz0XktbpPvWM-82" value="14" style="text;html=1;align=center;verticalAlign=middle;whiteSpace=wrap;rounded=0;" vertex="1" parent="1">
          <mxGeometry x="720" y="459.5" width="30" height="30" as="geometry" />
        </mxCell>
        <mxCell id="-gtFXGKGoz0XktbpPvWM-83" value="16" style="text;html=1;align=center;verticalAlign=middle;whiteSpace=wrap;rounded=0;" vertex="1" parent="1">
          <mxGeometry x="840" y="422" width="30" height="30" as="geometry" />
        </mxCell>
        <mxCell id="-gtFXGKGoz0XktbpPvWM-84" value="21" style="text;html=1;align=center;verticalAlign=middle;whiteSpace=wrap;rounded=0;" vertex="1" parent="1">
          <mxGeometry x="840" y="550" width="30" height="30" as="geometry" />
        </mxCell>
        <mxCell id="-gtFXGKGoz0XktbpPvWM-89" style="edgeStyle=orthogonalEdgeStyle;rounded=0;orthogonalLoop=1;jettySize=auto;html=1;exitX=1;exitY=0.5;exitDx=0;exitDy=0;entryX=0.5;entryY=1;entryDx=0;entryDy=0;" edge="1" parent="1" source="-gtFXGKGoz0XktbpPvWM-6" target="-gtFXGKGoz0XktbpPvWM-47">
          <mxGeometry relative="1" as="geometry">
            <Array as="points">
              <mxPoint x="960" y="707" />
            </Array>
          </mxGeometry>
        </mxCell>
        <mxCell id="-gtFXGKGoz0XktbpPvWM-85" value="25" style="text;html=1;align=center;verticalAlign=middle;whiteSpace=wrap;rounded=0;" vertex="1" parent="1">
          <mxGeometry x="840" y="680" width="30" height="30" as="geometry" />
        </mxCell>
        <mxCell id="-gtFXGKGoz0XktbpPvWM-86" value="16" style="text;html=1;align=center;verticalAlign=middle;whiteSpace=wrap;rounded=0;" vertex="1" parent="1">
          <mxGeometry x="710" y="550" width="30" height="30" as="geometry" />
        </mxCell>
        <mxCell id="-gtFXGKGoz0XktbpPvWM-87" value="23" style="text;html=1;align=center;verticalAlign=middle;whiteSpace=wrap;rounded=0;" vertex="1" parent="1">
          <mxGeometry x="720" y="662.5" width="30" height="30" as="geometry" />
        </mxCell>
      </root>
    </mxGraphModel>
  </diagram>
</mxfile>
